<?xml version="1.0" encoding="UTF-8"?>
<svg width="500px" height="200px" viewBox="0 0 500 200" version="1.1" xmlns="http://www.w3.org/2000/svg" xmlns:xlink="http://www.w3.org/1999/xlink">
    <title>logo/vertical/blue</title>
    <defs>
        <path d="M27.5604075,23.5783603 C30.083638,16.4851622 30.9774325,8.64111112 31.2231741,2.76807806 C31.421868,-1.98055236 46.3485516,0.285350366 46.3946242,2.86261873 C46.4507989,6.0049914 46.1657184,8.50107841 45.9247208,10.3508797 C45.2667374,15.401299 44.9539979,23.6994984 43.0135625,28.8445754 C39.0455467,39.3657951 29.3971244,53.4080827 14.0682955,70.9714383 L14.0690626,70.9721071 C13.3698309,71.7740456 12.152892,71.857306 11.3509535,71.1580743 C11.3410611,71.1494488 11.3312571,71.1407225 11.321543,71.1318966 L1.4441818,62.1485624 C0.657798128,61.4318819 0.601292565,60.2134076 1.3179731,59.4270239 C1.32296778,59.4215435 1.32799406,59.4160919 1.33305169,59.4106695 C15.8654638,43.824067 24.6074658,31.8795443 27.5604075,23.5783603 Z" id="path-1"></path>
        <filter x="-16.5%" y="-3.7%" width="133.1%" height="107.4%" filterUnits="objectBoundingBox" id="filter-3">
            <feGaussianBlur stdDeviation="0.963243243" in="SourceGraphic"></feGaussianBlur>
        </filter>
        <path d="M0.000519270294,71.7119362 L5.68434189e-14,41.3282139 L9.54791801e-15,13.8198967 C9.49264728e-15,13.765208 0.00232873453,13.7105441 0.00697987563,13.6560536 L1.17261786,-1.08126669e-15 L1.17261786,-1.08126669e-15 L16.6567965,-1.08126669e-15 L16.6567965,13.7395479 L16.6567965,41.3299353 L16.6570531,71.7119362 C16.6570616,72.7759053 15.794551,73.6384295 14.7305819,73.6384379 C14.7305768,73.6384379 14.7305717,73.6384379 14.7305666,73.6384379 L1.92703869,73.6383897 C0.863082434,73.6383897 0.00057037847,72.7758924 0.00055219502,71.7119362 Z" id="path-4"></path>
        <filter x="-8.4%" y="-5.6%" width="116.9%" height="111.2%" filterUnits="objectBoundingBox" id="filter-6">
            <feGaussianBlur stdDeviation="1.92648649" in="SourceGraphic"></feGaussianBlur>
        </filter>
    </defs>
    <g id="logo/vertical/blue" stroke="none" stroke-width="1" fill="none" fill-rule="evenodd">
        <g id="logo/short/black" transform="translate(203.5, 12)">
            <g id="Group" transform="translate(46.5011, 37.9989) rotate(90) translate(-46.5011, -37.9989)translate(8.5022, -8.5022)">
                <g id="Rect" transform="translate(29.596, 12.8313)">
                    <mask id="mask-2" fill="white">
                        <use xlink:href="#path-1" transform="translate(23.2009, 36.2254) scale(-1, 1) translate(-23.2009, -36.2254)"></use>
                    </mask>
                    <use id="Mask" fill="#002AFF" fill-rule="nonzero" transform="translate(23.2009, 36.2254) scale(-1, 1) translate(-23.2009, -36.2254)" xlink:href="#path-1"></use>
                    <polygon fill-opacity="0.2" fill="#000000" fill-rule="nonzero" filter="url(#filter-3)" mask="url(#mask-2)" points="2.37322013 72.1827251 2.3726412 47.8065524 2.3726412 19.7792692 2.3726412 -6.22832899 19.8359916 -6.22832899 19.8359916 19.7810178 19.8359916 47.808301 19.8362606 72.1827251"></polygon>
                </g>
                <g id="Combined-Shape-Copy" transform="translate(29.0011, 19.3638)">
                    <mask id="mask-5" fill="white">
                        <use xlink:href="#path-4"></use>
                    </mask>
                    <use id="Mask" fill="#006AFF" fill-rule="nonzero" xlink:href="#path-4"></use>
                    <path d="M0.361026786,18.265337 C4.71364855,5.63691813 3.98278706,-9.40914222 3.70567427,-11.0226488 C3.70567427,-11.0226488 6.86660802,-11.0226488 13.1884755,-11.0226488 C14.5596909,-11.0226488 16.9511082,-11.0226488 20.3627274,-11.0226488 C20.8833934,-3.49264477 20.9345283,1.92958799 20.5161322,5.24404943 C19.8885381,10.2157416 18.6493333,18.3845867 16.7985179,23.4494611 C15.8233239,26.1181418 14.3685185,29.0936521 12.621631,32.1989179 C3.91502754,47.6757691 -12.0471632,66.3758659 -12.0471632,66.3758659 L-24.2284409,54.9425232 C-24.2284409,54.9425232 -3.99159497,30.8937559 0.361026786,18.265337 Z M-29.8262534,-35.3961656 L-17.2596451,-17.965229 C-16.326323,-16.6706333 -16.6191932,-14.8645491 -17.9137889,-13.931227 C-18.4058625,-13.576473 -18.9970988,-13.3855702 -19.603718,-13.3855702 L-44.7369347,-13.3855702 C-46.3328883,-13.3855702 -47.6266644,-14.6793463 -47.6266644,-16.2752999 C-47.6266644,-16.8819192 -47.4357616,-17.4731554 -47.0810075,-17.965229 L-34.5143992,-35.3961656 C-33.5810772,-36.6907613 -31.774993,-36.9836314 -30.4803973,-36.0503094 C-30.2286355,-35.868805 -30.0077578,-35.6479273 -29.8262534,-35.3961656 Z" fill-opacity="0.2" fill="#000000" fill-rule="nonzero" filter="url(#filter-6)" mask="url(#mask-5)"></path>
                </g>
                <path d="M26.9745487,34.9470857 C28.5150423,30.7056503 29.363052,26.3694378 29.7986527,22.4171205 C30.6633622,14.5713898 46.1658368,17.6309105 45.7993847,22.631624 C45.3127786,29.2711854 44.8912585,35.6353041 42.5466929,41.72398 C38.5461164,52.1132024 28.8156469,65.9810632 13.3552842,83.3275624 L13.3579422,83.3299323 C12.6510234,84.1228025 11.4357125,84.1938435 10.6412296,83.4887376 L0.643890044,74.5832861 C-0.149988681,73.8749169 -0.219307895,72.6571044 0.489061245,71.8632257 C0.489411976,71.8628326 0.489762868,71.8624397 0.490113921,71.8620469 C15.167387,55.4556651 23.995127,43.1503161 26.9745487,34.9470857 Z M39.1903881,0.842756965 L52.7470603,20.7619631 C53.3456914,21.6415489 53.1179326,22.8398804 52.2383469,23.4385115 C51.9187266,23.6560396 51.5410501,23.7723671 51.1544294,23.7723671 L24.041085,23.7723671 C22.9771159,23.7723671 22.1145985,22.9098497 22.1145985,21.8458806 C22.1145985,21.4592598 22.230926,21.0815834 22.4484541,20.7619631 L36.0051263,0.842756965 C36.6037574,-0.0368287904 37.8020889,-0.264587562 38.6816747,0.334043511 C38.8816848,0.470166993 39.0542646,0.642746839 39.1903881,0.842756965 Z" id="Combined-Shape" fill="#0096FF" fill-rule="nonzero"></path>
            </g>
        </g>
        <g id="logo/word/black" transform="translate(8, 122)" fill="#006AFF" fill-rule="nonzero">
            <g id="Combined-Shape">
                <path d="M98.5399061,54 C112.586854,54 124,44.56 124,32.72 L124,2 C124,0.8954305 123.104569,3.72131305e-15 122,0 L109,0 C107.895431,2.02906125e-16 107,0.8954305 107,2 L107,32.48 L107,32.48 C107,36.32 103.169014,39.52 98.5399061,39.52 C93.8309859,39.52 90.0798122,36.32 90.0798122,32.48 L90.0798122,2 C90.0798122,0.8954305 89.1843817,-2.705415e-16 88.0798122,0 L75,0 C73.8954305,2.02906125e-16 73,0.8954305 73,2 L73,32.72 L73,32.72 C73,44.56 84.2535211,54 98.5399061,54 Z M144.134069,0 C145.238639,-2.705415e-16 146.134069,0.8954305 146.134069,2 L146.134069,39.76 L178,39.76 C179.104569,39.76 180,40.6554305 180,41.76 L180,52 C180,53.1045695 179.104569,54 178,54 L131,54 C129.895431,54 129,53.1045695 129,52 L129,2 C129,0.8954305 129.895431,2.02906125e-16 131,0 Z M217,8.8817842e-16 C218.104569,4.60949147e-15 219,0.8954305 219,2 L219,12.0591716 C219,13.1637411 218.104569,14.0591716 217,14.0591716 L201.81348,14.0591716 L201.81348,52 C201.81348,53.1045695 200.918049,54 199.81348,54 L186.866771,54 C185.762202,54 184.866771,53.1045695 184.866771,52 L184.866771,14.0591716 L170,14.0591716 C168.895431,14.0591716 168,13.1637411 168,12.0591716 L168,2 C168,0.8954305 168.895431,-1.91384796e-17 170,-2.22044605e-16 Z M225,2 L225,52 C225,53.1045695 225.895431,54 227,54 L240,54 C241.104569,54 242,53.1045695 242,52 L242,2 C242,0.8954305 241.104569,-2.705415e-16 240,0 L227,0 C225.895431,2.02906125e-16 225,0.8954305 225,2 Z M270.579932,0 C282.851113,0 292.897019,6.60966543 293.915078,15.1312282 L293.92184,15.20685 L293.924097,15.28274 C293.924097,15.9881358 293.35226,16.5599721 292.646864,16.5599721 L278.387994,16.5599991 C277.589727,16.5607511 276.867462,16.0867414 276.550513,15.3540934 L276.539693,15.3271317 C275.776102,13.6588574 273.492464,12.4 270.579932,12.4 C266.903061,12.4 264.345238,14 264.345238,16.56 C264.345238,19.04 266.903061,20.8 270.579932,20.8 C283.768707,20.8 294,28.32 294,37.44 C294,46.64 283.768707,54 270.819728,54 C257.497081,54 248.143625,47.1898814 247.097705,39.0472909 L247.089428,38.9611722 L247.086665,38.8747009 C247.086665,38.1265373 247.693172,37.520031 248.441335,37.520031 L262.84973,37.5199972 C263.569248,37.5199972 264.21443,37.9631998 264.472592,38.6348095 L264.543383,38.8043427 C265.301284,40.4838287 267.550884,41.68 270.579932,41.68 C274.017007,41.68 276.734694,40 276.734694,37.52 C276.734694,34.88 273.777211,33.28 270.420068,33.28 C257.870748,33.28 247.079932,25.84 247.079932,16.64 C247.079932,7.44 256.911565,0 270.579932,0 Z M309.498776,1.77635684e-15 C310.157527,1.65534616e-15 310.774033,0.324388478 311.147113,0.867310674 L322.9202,18 L334.852064,0.857444614 C335.225971,0.320250697 335.839067,5.89339134e-15 336.493578,5.77315973e-15 L351.185461,-2.66453526e-15 C351.591888,-1.29527606e-15 351.98867,0.12382331 352.322961,0.354978452 C353.231481,0.983201835 353.458706,2.22897874 352.830483,3.13749906 L331.379052,34.16 L331.379052,52 C331.379052,53.1045695 330.483622,54 329.379052,54 L316.620948,54 C315.516378,54 314.620948,53.1045695 314.620948,52 L314.620948,34.16 L293.169517,3.13749906 C292.938362,2.8032085 292.814539,2.40642696 292.814539,2 C292.814539,0.8954305 293.709969,6.46995335e-16 294.814539,4.4408921e-16 Z M358,2 L358,52 C358,53.1045695 358.895431,54 360,54 L373.152269,54 C374.256839,54 375.152269,53.1045695 375.152269,52 L375.152269,28.4 L375.152269,28.4 L405.357616,53.5372891 C405.716895,53.8362855 406.16955,54 406.636968,54 L411,54 C412.104569,54 413,53.1045695 413,52 L413,2 C413,0.8954305 412.104569,3.72131305e-15 411,0 L397.847731,0 C396.743161,4.1271253e-15 395.847731,0.8954305 395.847731,2 L395.847731,25.52 L395.847731,25.52 L365.479648,0.457474319 C365.12132,0.161748974 364.671214,1.69101131e-15 364.206614,1.77635684e-15 L360,0 C358.895431,2.02906125e-16 358,0.8954305 358,2 Z M0,2 L0,52 C1.3527075e-16,53.1045695 0.8954305,54 2,54 L15.0798122,54 C16.1843817,54 17.0798122,53.1045695 17.0798122,52 L17.0798122,26.32 L17.0798122,26.32 L34.0798122,39.2 L50.9201878,26.24 L50.9201878,52 C50.9201878,53.1045695 51.8156183,54 52.9201878,54 L66,54 C67.1045695,54 68,53.1045695 68,52 L68,2 C68,0.8954305 67.1045695,-2.705415e-16 66,0 L60.3380282,0 L60.3380282,0 L34.0798122,20 L7.66197183,0 L2,0 C0.8954305,2.02906125e-16 -2.02906125e-16,0.8954305 0,2 Z M449.823934,0 C467.952093,0 482.647869,12.2150319 482.647869,27.2830374 C482.647869,31.9084707 481.263073,36.2650658 478.819287,40.0820147 L483.354367,43.9231948 C484.197212,44.6371175 484.301725,45.8991273 483.587802,46.7419726 C483.554944,46.7807646 483.520618,46.8182896 483.4849,46.8544659 L475.972186,54.4636324 C475.237653,55.2075956 474.054063,55.2603025 473.25631,54.5845741 L467.909162,50.0548897 C462.723439,52.9059951 456.506925,54.5660748 449.823934,54.5660748 C431.695776,54.5660748 417,42.3510428 417,27.2830374 C417,12.2150319 431.695776,0 449.823934,0 Z M449.823934,13.9089994 C440.611264,13.9089994 433.142919,19.8967602 433.142919,27.2830374 C433.142919,34.6693146 440.611264,40.6570753 449.823934,40.6570753 C451.921895,40.6570753 453.929398,40.3465563 455.778842,39.7797155 L452.551558,37.0468469 C451.708713,36.3329243 451.6042,35.0709145 452.318123,34.2280692 C452.350981,34.1892772 452.385307,34.1517521 452.421025,34.1155758 L459.933739,26.5064093 C460.668272,25.7624461 461.851862,25.7097392 462.649615,26.3854676 L466.284204,29.4642354 C466.429428,28.7544228 466.50495,28.0258012 466.50495,27.2830374 C466.50495,19.8967602 459.036605,13.9089994 449.823934,13.9089994 Z"></path>
            </g>
        </g>
    </g>
</svg>